<svg width="32" height="32" viewBox="0 0 32 32" fill="none" xmlns="http://www.w3.org/2000/svg">
<path d="M10.5227 7.06641C10.0523 7.06641 9.58192 7.06641 9.09596 7.08228C8.60969 7.09786 8.15488 7.09786 7.73153 7.11374C7.30819 7.12932 6.91629 7.12932 6.53998 7.1449C6.17925 7.16048 5.92848 7.16048 5.66183 7.16048C5.55217 7.16048 5.50513 7.2231 5.50513 7.33306V23.4674C5.50513 23.6085 5.56775 23.6714 5.69328 23.6714H8.73523C8.84488 23.6555 8.92338 23.5615 8.90751 23.4518V18.4186C9.20532 18.4186 9.42493 18.4186 9.58192 18.4342C9.73862 18.4498 9.9894 18.4498 10.3657 18.4498C11.6516 18.4498 12.8276 18.3087 13.8936 17.9168C14.9129 17.5405 15.7911 16.8819 16.4181 16.0038C17.0453 15.1257 17.3589 14.0125 17.3589 12.664C17.3589 11.9584 17.2337 11.2843 16.9985 10.6258C16.7493 9.95485 16.3589 9.34528 15.8537 8.8383C15.2574 8.25903 14.5397 7.81976 13.7525 7.55238C12.8744 7.2231 11.8083 7.06641 10.5227 7.06641ZM10.8726 10.1548C11.4311 10.1654 11.975 10.263 12.4825 10.4688C12.9373 10.6414 13.3136 10.955 13.5802 11.3625C13.8303 11.7842 13.9554 12.2683 13.941 12.7584C13.941 13.4481 13.784 13.9814 13.4547 14.3733C13.1095 14.7652 12.6706 15.0633 12.1691 15.2044C11.5887 15.3926 10.9772 15.4864 10.3657 15.4864H9.53459C9.34644 15.4864 9.14299 15.4708 8.92338 15.4552V10.1868C9.03304 10.171 9.25265 10.1554 9.56634 10.1713C9.86416 10.1554 10.2246 10.1554 10.6324 10.1554C10.7127 10.1534 10.7928 10.1532 10.8726 10.1548ZM24.0229 10.9553C22.9095 10.9553 21.9843 11.1276 21.2476 11.5039C20.5734 11.8176 19.9931 12.3192 19.6012 12.9463C19.2563 13.5266 19.0679 14.1693 19.0679 14.8437C19.0545 15.3984 19.1784 15.9478 19.4286 16.443C19.7219 16.9703 20.129 17.4256 20.6205 17.7757C21.3102 18.2474 22.0587 18.627 22.8469 18.9046C23.6151 19.2024 24.1325 19.4376 24.3836 19.6414C24.6344 19.8454 24.7599 20.0491 24.7599 20.2687C24.7599 20.551 24.5873 20.8176 24.3365 20.9273C24.0543 21.0684 23.631 21.1469 23.035 21.1469C22.4079 21.1469 21.7806 21.0684 21.1846 20.9117C20.5004 20.7589 19.8444 20.4997 19.2405 20.1435C19.1934 20.112 19.1464 20.0965 19.0994 20.1279C19.0523 20.1591 19.0367 20.2217 19.0367 20.2687V22.997C19.0212 23.1225 19.0994 23.2322 19.2093 23.2948C19.7178 23.5323 20.2556 23.7011 20.8086 23.7967C21.5142 23.9378 22.2195 24.0004 22.9407 24.0004C24.0696 24.0004 25.0107 23.8281 25.7789 23.4988C26.4845 23.2166 27.096 22.7306 27.5349 22.1033C27.946 21.4865 28.1593 20.7591 28.1464 20.018C28.1619 19.4581 28.038 18.9032 27.786 18.4031C27.4879 17.8698 27.0645 17.4308 26.5471 17.1016C25.7901 16.6262 24.9796 16.2419 24.1325 15.9567C23.7542 15.8002 23.3828 15.6275 23.0192 15.4393C22.8154 15.3297 22.6273 15.1885 22.4862 15.016C22.3921 14.8904 22.3295 14.7496 22.3295 14.6085C22.3295 14.4674 22.3765 14.3107 22.4547 14.1851C22.5646 14.0284 22.7369 13.9185 22.9407 13.8715C23.2388 13.7933 23.568 13.7459 23.8814 13.7615C24.4774 13.7615 25.0574 13.84 25.6378 13.9655C26.1711 14.0752 26.6726 14.2478 27.143 14.4988C27.2056 14.53 27.2841 14.53 27.4252 14.4988C27.4497 14.4807 27.4696 14.457 27.4832 14.4297C27.4969 14.4024 27.5039 14.3723 27.5037 14.3418V11.7862C27.5037 11.7233 27.4879 11.6606 27.4723 11.598C27.4408 11.5354 27.3782 11.4725 27.3156 11.4569C26.8831 11.2801 26.43 11.1589 25.967 11.0962C25.3232 11.0024 24.6735 10.9556 24.0229 10.9553Z" fill="#31A8FF"/>
</svg>
