<svg width="32" height="32" viewBox="0 0 32 32" fill="none" xmlns="http://www.w3.org/2000/svg">
<g clip-path="url(#clip0_115_5129)">
<path d="M16.583 17.5075C16.643 16.447 17.1648 15.5108 17.9543 14.849C18.7278 14.1985 19.7663 13.8008 20.9065 13.8008C22.0408 13.8008 23.079 14.1983 23.8515 14.849C24.6423 15.5108 25.1608 16.447 25.2228 17.5075C25.2828 18.595 24.842 19.61 24.0715 20.3618C23.282 21.1243 22.1648 21.606 20.9065 21.606C19.6473 21.606 18.525 21.1273 17.7405 20.3618C16.967 19.6103 16.5273 18.6008 16.589 17.5125L16.583 17.5075Z" fill="#235785"/>
<path d="M9.81126 19.7503C9.81826 20.1653 9.95226 20.9728 10.1513 21.6013C10.5718 22.9353 11.2855 24.1695 12.2738 25.251C13.2893 26.3673 14.5423 27.2648 15.9863 27.9035C17.5045 28.571 19.1525 28.9128 20.8625 28.9128C22.5725 28.9105 24.2205 28.5628 25.7385 27.8873C27.1825 27.2418 28.436 26.3453 29.451 25.223C30.4445 24.1295 31.156 22.8963 31.5738 21.5613C31.783 20.8982 31.9167 20.2136 31.9725 19.5205C32.0245 18.848 32.0025 18.1693 31.9068 17.4905C31.7196 16.1826 31.2581 14.9291 30.5525 13.812C29.909 12.7745 29.0735 11.872 28.08 11.1088L28.083 11.1078L18.0943 3.48129C18.0853 3.47429 18.0773 3.46729 18.0683 3.46129C17.4135 2.96079 16.3073 2.96279 15.5908 3.46329C14.8623 3.97104 14.7783 4.80954 15.4268 5.33729L15.4238 5.33929L19.5943 8.71029L6.89701 8.72304H6.88001C5.83076 8.72404 4.82026 9.40779 4.62251 10.2763C4.41751 11.1565 5.13126 11.8913 6.22551 11.8913L6.22351 11.8953L12.6575 11.8833L1.14501 20.6308C1.13101 20.6418 1.11501 20.6528 1.10101 20.6638C0.0172596 21.4873 -0.33249 22.8613 0.35001 23.7248C1.04451 24.6053 2.51651 24.6113 3.61176 23.7298L9.87626 18.6273C9.87626 18.6273 9.78426 19.3168 9.79226 19.7265L9.81126 19.7503ZM25.9513 22.055C24.6593 23.362 22.8473 24.1075 20.8945 24.1075C18.9368 24.1105 17.1248 23.378 15.8325 22.072C15.201 21.4323 14.7383 20.7038 14.4505 19.9243C14.1692 19.1573 14.0607 18.3376 14.1328 17.5238C14.2012 16.7298 14.4379 15.9594 14.8273 15.264C15.204 14.5855 15.7248 13.969 16.3623 13.4473C17.6205 12.4328 19.2173 11.8773 20.8873 11.8773C22.5645 11.8753 24.1615 12.4208 25.4198 13.4363C26.0573 13.955 26.576 14.5685 26.9548 15.247C27.3449 15.9424 27.5814 16.7133 27.6483 17.5078C27.7193 18.3212 27.6109 19.1404 27.3305 19.9073C27.0438 20.6928 26.58 21.4213 25.9473 22.061L25.9513 22.055Z" fill="#E87500"/>
</g>
<defs>
<clipPath id="clip0_115_5129">
<rect width="32" height="32" fill="white"/>
</clipPath>
</defs>
</svg>
