<svg width="32" height="32" viewBox="0 0 32 32" fill="none" xmlns="http://www.w3.org/2000/svg">
<path d="M4.55996 16.0003C4.55996 14.347 4.91996 12.7737 5.54663 11.3337L11.0133 26.2937C9.07757 25.3596 7.44492 23.898 6.30325 22.077C5.16158 20.256 4.5573 18.1496 4.55996 16.0003ZM23.72 15.427C23.72 16.4003 23.3333 17.5337 22.8533 19.1203L21.7066 22.9337L17.5733 10.667L18.88 10.5337C19.5066 10.4537 19.4266 9.54699 18.8133 9.58699C18.8133 9.58699 16.96 9.73366 15.76 9.73366L12.7466 9.58699C12.1333 9.54699 12.0666 10.4937 12.6666 10.5337L13.88 10.667L15.6666 15.5203L13.16 23.027L8.98663 10.667L10.3066 10.5337C10.92 10.4537 10.84 9.54699 10.2266 9.58699C10.2266 9.58699 8.37329 9.73366 7.17329 9.73366L6.43996 9.72033C8.49329 6.61366 12 4.56033 16 4.56033C18.9733 4.56033 21.6933 5.70699 23.72 7.56033H23.5733C22.4533 7.56033 21.6533 8.53366 21.6533 9.58699C21.6533 10.5337 22.2 11.3337 22.7733 12.267C23.2133 13.027 23.72 14.0003 23.72 15.427ZM16.2 17.0003L19.72 26.627L19.8 26.787C18.6133 27.2137 17.3333 27.4403 16 27.4403C14.88 27.4403 13.8 27.2803 12.7733 26.9737L16.2 17.0003ZM26.04 10.507C26.9617 12.191 27.4433 14.0805 27.44 16.0003C27.44 20.2137 25.1466 23.907 21.7466 25.8803L25.24 15.787C25.8933 14.1603 26.12 12.8537 26.12 11.6937L26.04 10.507ZM16 2.66699C17.7509 2.66699 19.4847 3.01187 21.1024 3.68193C22.7201 4.35199 24.1899 5.33412 25.4281 6.57224C26.6662 7.81035 27.6483 9.2802 28.3184 10.8979C28.9884 12.5156 29.3333 14.2494 29.3333 16.0003C29.3333 19.5365 27.9285 22.9279 25.4281 25.4284C22.9276 27.9289 19.5362 29.3337 16 29.3337C14.249 29.3337 12.5152 28.9888 10.8975 28.3187C9.27984 27.6487 7.80998 26.6665 6.57187 25.4284C4.07138 22.9279 2.66663 19.5365 2.66663 16.0003C2.66663 12.4641 4.07138 9.07272 6.57187 6.57224C9.07235 4.07175 12.4637 2.66699 16 2.66699ZM16 28.7203C23.0133 28.7203 28.72 23.0137 28.72 16.0003C28.72 8.98699 23.0133 3.28033 16 3.28033C8.98663 3.28033 3.27996 8.98699 3.27996 16.0003C3.27996 23.0137 8.98663 28.7203 16 28.7203Z" fill="#FCFCFC"/>
</svg>
